name C:\Users\r0593348\3dpredictsim\Results\batch_windlass\Pog_s1_tmt_bCst_d00_k1500_WL20_ig24_pas.mot
datacolumns 128
datarows 4
range 0.52878088 0.56050773
endheader
time	pelvis_tilt	pelvis_list	pelvis_rotation	pelvis_tx	pelvis_ty	pelvis_tz	hip_flexion_l	hip_adduction_l	hip_rotation_l	hip_flexion_r	hip_adduction_r	hip_rotation_r	knee_angle_l	knee_angle_r	ankle_angle_l	ankle_angle_r	subtalar_angle_l	subtalar_angle_r	tmt_angle_l	tmt_angle_r	mtp_angle_l	mtp_angle_r	lumbar_extension	lumbar_bending	lumbar_rotation	arm_flex_l	arm_add_l	arm_rot_l	arm_flex_r	arm_add_r	arm_rot_r	elbow_flex_l	elbow_flex_r	pro_sup_l	pro_sup_r	glut_med1_l/activation	glut_med2_l/activation	glut_med3_l/activation	glut_min1_l/activation	glut_min2_l/activation	glut_min3_l/activation	semimem_l/activation	semiten_l/activation	bifemlh_l/activation	bifemsh_l/activation	sar_l/activation	add_long_l/activation	add_brev_l/activation	add_mag1_l/activation	add_mag2_l/activation	add_mag3_l/activation	tfl_l/activation	pect_l/activation	grac_l/activation	glut_max1_l/activation	glut_max2_l/activation	glut_max3_l/activation	iliacus_l/activation	psoas_l/activation	quad_fem_l/activation	gem_l/activation	peri_l/activation	rect_fem_l/activation	vas_med_l/activation	vas_int_l/activation	vas_lat_l/activation	med_gas_l/activation	lat_gas_l/activation	soleus_l/activation	tib_post_l/activation	flex_dig_l/activation	flex_hal_l/activation	tib_ant_l/activation	per_brev_l/activation	per_long_l/activation	per_tert_l/activation	ext_dig_l/activation	ext_hal_l/activation	ercspn_l/activation	intobl_l/activation	extobl_l/activation	glut_med1_r/activation	glut_med2_r/activation	glut_med3_r/activation	glut_min1_r/activation	glut_min2_r/activation	glut_min3_r/activation	semimem_r/activation	semiten_r/activation	bifemlh_r/activation	bifemsh_r/activation	sar_r/activation	add_long_r/activation	add_brev_r/activation	add_mag1_r/activation	add_mag2_r/activation	add_mag3_r/activation	tfl_r/activation	pect_r/activation	grac_r/activation	glut_max1_r/activation	glut_max2_r/activation	glut_max3_r/activation	iliacus_r/activation	psoas_r/activation	quad_fem_r/activation	gem_r/activation	peri_r/activation	rect_fem_r/activation	vas_med_r/activation	vas_int_r/activation	vas_lat_r/activation	med_gas_r/activation	lat_gas_r/activation	soleus_r/activation	tib_post_r/activation	flex_dig_r/activation	flex_hal_r/activation	tib_ant_r/activation	per_brev_r/activation	per_long_r/activation	per_tert_r/activation	ext_dig_r/activation	ext_hal_r/activation	ercspn_r/activation	intobl_r/activation	extobl_r/activation	
          0.52878088	         -2.91543636	          1.48783109	         -6.07590222	          0.66097610	          0.85826458	          0.00226804	         31.75131391	          2.28029381	         -1.64044888	        -18.18398702	         -1.69710558	         10.86236050	        -20.91916163	         -9.44875096	         -4.25995735	         -1.84797898	         -1.72678463	         12.88034738	          0.15159660	         -5.93579953	         -0.54864169	         28.59232600	         -0.79090755	          0.19399489	          1.85115305	        -11.88186496	        -13.96397836	          7.70322284	          6.19560410	        -13.47597648	         15.89875802	         19.01705352	         35.76601003	         86.51662706	         86.51662706	          0.05000012	          0.05000029	          0.05000024	          0.05000560	          0.05000116	          0.05000039	          0.06757305	          0.05881371	          0.26117853	          0.05881307	          0.05189531	          0.14380797	          0.12772939	          0.08491998	          0.07727263	          0.07269538	          0.05881236	          0.05004415	          0.10048021	          0.05000032	          0.05000019	          0.05000034	          0.07667427	          0.08137290	          0.17269131	          0.05001481	          0.05000029	          0.07019225	          0.07922987	          0.10341050	          0.08590990	          0.06917996	          0.08302580	          0.06917940	          0.05880652	          0.05881299	          0.05881307	          0.19526019	          0.18169608	          0.12076884	          0.05000005	          0.58181862	          0.05000007	          0.05121559	          0.11347409	          0.14214736	          0.30962859	          0.09753943	          0.05000007	          0.34385248	          0.22825237	          0.10414191	          0.05000278	          0.05000023	          0.05000021	          0.07576527	          0.11160372	          0.06495871	          0.05000051	          0.05000054	          0.05000146	          0.05000743	          0.34516519	          0.05000166	          0.05000039	          0.05000152	          0.05000108	          0.05000086	          0.35047158	          0.53611411	          0.05000010	          0.05000062	          0.05000015	          0.22078563	          0.05645681	          0.05881304	          0.08322125	          0.30070812	          0.38070778	          0.23836969	          0.19812433	          0.22520088	          0.27944684	          0.05000000	          0.17945640	          0.19649171	          0.05000003	          0.05000001	          0.05000003	          0.05000000	          0.05804621	          0.05000001	
          0.53935649	         -2.89979831	          1.67221528	         -6.36996437	          0.67724824	          0.85738121	          0.00204506	         31.27802638	          2.79783234	         -1.37519268	        -17.74892418	         -2.03251621	         10.59661710	        -20.69961351	        -11.75498581	         -5.03537762	         -2.92035990	         -2.53787246	         14.01377507	          0.10883241	         -6.24985354	         -0.51711904	         29.34488694	         -0.57352719	         -0.12859887	          1.93344536	        -12.94657682	        -13.95197157	          7.48221692	          5.94894542	        -13.50862878	         16.25671307	         18.99258288	         36.74707854	         86.51662706	         86.51662706	          0.05000019	          0.05000006	          0.05000008	          0.05000032	          0.05000024	          0.05000023	          0.05744739	          0.05000062	          0.24641258	          0.05000007	          0.05000031	          0.12225881	          0.14864967	          0.20939170	          0.14496132	          0.11555747	          0.05000059	          0.05881506	          0.08542353	          0.05000009	          0.05000043	          0.05282472	          0.06518482	          0.06917936	          0.15049359	          0.05000029	          0.05000011	          0.07947936	          0.20684779	          0.20772749	          0.17651118	          0.05881348	          0.07058455	          0.05881301	          0.05000000	          0.05000006	          0.05000011	          0.37126664	          0.15446929	          0.10267187	          0.43225495	          0.64758956	          0.05000004	          0.05000001	          0.09647022	          0.12084686	          0.26323139	          0.08292335	          0.05000002	          0.29232690	          0.19404923	          0.08853647	          0.05000137	          0.05000013	          0.05000011	          0.06441201	          0.09488020	          0.13059467	          0.11177032	          0.05000104	          0.05000080	          0.05000032	          0.29426374	          0.08342799	          0.05000033	          0.05000073	          0.05000048	          0.05000033	          0.29795412	          0.48095725	          0.05000005	          0.05000018	          0.05000005	          0.18770137	          0.10235194	          0.05000031	          0.07075081	          0.25564760	          0.32365947	          0.20265046	          0.16843581	          0.19145502	          0.23757231	          0.05000048	          0.15256526	          0.16704783	          0.05000008	          0.15257987	          0.05000022	          0.05000000	          0.07381219	          0.05000204	
          0.54993211	         -2.87920436	          1.85847856	         -6.64407404	          0.69377554	          0.85618999	          0.00181214	         30.62464100	          3.33790474	         -1.01746370	        -17.20656464	         -2.34481258	         10.31134079	        -20.69835306	        -14.28665688	         -5.20112261	         -3.97849726	         -3.40214488	         15.05097856	          0.15091990	         -6.48110930	         -0.42038356	         29.55943349	         -0.33834488	         -0.45588280	          2.00619008	        -13.98389771	        -13.93765031	          7.33805295	          5.63250518	        -13.55826159	         16.55116111	         18.88906152	         37.71881981	         86.51662706	         86.51662706	          0.15089569	          0.06766370	          0.12395347	          0.05000011	          0.05000029	          0.05000055	          0.05000006	          0.05000020	          0.21264498	          0.05881182	          0.05001761	          0.10393860	          0.12637484	          0.33723909	          0.28216275	          0.15449256	          0.05000014	          0.05000208	          0.07262323	          0.05881307	          0.13847217	          0.13234881	          0.05541702	          0.05881300	          0.30805786	          0.05881303	          0.05000169	          0.06756955	          0.28026569	          0.27804327	          0.23575558	          0.05000040	          0.06000760	          0.05000000	          0.14413320	          0.08260803	          0.05881329	          0.54853894	          0.13132237	          0.08728670	          0.36748271	          0.68681280	          0.44282860	          0.05000000	          0.08201435	          0.10273820	          0.22378670	          0.07049747	          0.05000021	          0.24852232	          0.16497137	          0.07526951	          0.05000100	          0.05000009	          0.05000015	          0.05476001	          0.08066267	          0.20754286	          0.27136153	          0.27610662	          0.10050213	          0.11271112	          0.29783104	          0.08136854	          0.05000037	          0.05000076	          0.05000051	          0.05000053	          0.25330629	          0.41386078	          0.05000019	          0.06915958	          0.06010347	          0.15957474	          0.08701532	          0.13243080	          0.08909034	          0.21733931	          0.27515974	          0.17228369	          0.14319605	          0.16276592	          0.20197260	          0.21968175	          0.12970368	          0.14201606	          0.22697396	          0.26499469	          0.20610830	          0.06793365	          0.06917940	          0.05000017	
          0.56050773	         -2.85438012	          2.04660983	         -6.88942579	          0.71040004	          0.85469435	          0.00160174	         29.79853665	          3.85372824	         -0.58202173	        -16.54467743	         -2.62391334	         10.02841744	        -21.11461762	        -17.06799168	         -5.04872001	         -4.90444993	         -4.37239953	         15.97419065	          0.06463407	         -6.42511176	         -0.31997753	         28.70706230	         -0.09873778	         -0.79005204	          2.06405393	        -14.95661007	        -13.93370719	          7.31643631	          5.26397841	        -13.61675116	         16.77435208	         18.68196193	         38.68431868	         86.51662706	         86.51662706	          0.35243171	          0.32555125	          0.47215721	          0.07580393	          0.05000021	          0.05000007	          0.08553972	          0.10737525	          0.18079306	          0.05000001	          0.05000003	          0.08836369	          0.26916415	          0.28670784	          0.26889944	          0.17654069	          0.05000007	          0.06918005	          0.12619553	          0.05000009	          0.21413354	          0.18127171	          0.05000012	          0.05000008	          0.26189604	          0.05000009	          0.23980952	          0.05744440	          0.30490899	          0.30487611	          0.25814331	          0.05881300	          0.05881300	          0.05881300	          0.12253514	          0.07022941	          0.05000028	          0.46634147	          0.11164407	          0.07420699	          0.37325962	          0.62184760	          0.37647166	          0.05000006	          0.06972467	          0.08734309	          0.19025275	          0.05993359	          0.05881298	          0.21128178	          0.14025077	          0.06399056	          0.05015152	          0.05000106	          0.05789535	          0.05000004	          0.06857563	          0.20804217	          0.43593473	          0.23473272	          0.09322110	          0.09582176	          0.33138690	          0.06917817	          0.05881369	          0.05881326	          0.05881329	          0.05881320	          0.21534885	          0.36825350	          0.05881310	          0.05881291	          0.05109710	          0.13566279	          0.07397627	          0.11258632	          0.07574035	          0.18477144	          0.23392760	          0.14646732	          0.12173843	          0.13837584	          0.17170748	          0.23268329	          0.11026794	          0.12073538	          0.27879952	          0.29409954	          0.17522344	          0.11148282	          0.05881301	          0.05000007	
